<svg width="31" height="28" viewBox="0 0 31 28" fill="none" xmlns="http://www.w3.org/2000/svg">
<path d="M15.4167 22.1229C17.2667 22.1229 18.8212 21.4934 20.0802 20.2344C21.3392 18.9753 21.9688 17.408 21.9688 15.5323C21.9688 13.6823 21.3392 12.1342 20.0802 10.888C18.8212 9.64184 17.2667 9.01875 15.4167 9.01875C13.541 9.01875 11.98 9.64184 10.7339 10.888C9.48767 12.1342 8.86458 13.6823 8.86458 15.5323C8.86458 17.408 9.48767 18.9753 10.7339 20.2344C11.98 21.4934 13.541 22.1229 15.4167 22.1229ZM15.4167 19.8104C14.1833 19.8104 13.1684 19.4057 12.3719 18.5964C11.5753 17.787 11.1771 16.7656 11.1771 15.5323C11.1771 14.3247 11.5753 13.3226 12.3719 12.526C13.1684 11.7295 14.1833 11.3313 15.4167 11.3313C16.6243 11.3313 17.6328 11.7295 18.4422 12.526C19.2516 13.3226 19.6563 14.3247 19.6563 15.5323C19.6563 16.7656 19.2516 17.787 18.4422 18.5964C17.6328 19.4057 16.6243 19.8104 15.4167 19.8104ZM2.3125 27.75C1.69583 27.75 1.15625 27.5187 0.69375 27.0562C0.23125 26.5937 0 26.0542 0 25.4375V5.66563C0 5.07465 0.23125 4.54149 0.69375 4.06615C1.15625 3.5908 1.69583 3.35313 2.3125 3.35313H7.97813L10.7917 0H20.0417L22.8552 3.35313H28.5208C29.1118 3.35313 29.645 3.5908 30.1203 4.06615C30.5957 4.54149 30.8333 5.07465 30.8333 5.66563V25.4375C30.8333 26.0542 30.5957 26.5937 30.1203 27.0562C29.645 27.5187 29.1118 27.75 28.5208 27.75H2.3125ZM28.5208 25.4375V5.66563H21.776L18.9625 2.3125H11.8708L9.05729 5.66563H2.3125V25.4375H28.5208Z" fill="white"/>
</svg>
