<svg width="18" height="20" viewBox="0 0 18 20" fill="none" xmlns="http://www.w3.org/2000/svg">
<path d="M5.23177 17.6258C4.86719 17.6258 4.55729 17.4854 4.30208 17.2047C4.04688 16.9239 3.91927 16.5831 3.91927 16.182C3.91927 15.781 4.04688 15.4401 4.30208 15.1594C4.55729 14.8786 4.86719 14.7383 5.23177 14.7383C5.5842 14.7383 5.89106 14.8786 6.15234 15.1594C6.41363 15.4401 6.54427 15.781 6.54427 16.182C6.54427 16.5831 6.41667 16.9239 6.16146 17.2047C5.90625 17.4854 5.59635 17.6258 5.23177 17.6258ZM12.5234 17.6258C12.1589 17.6258 11.849 17.4854 11.5938 17.2047C11.3385 16.9239 11.2109 16.5831 11.2109 16.182C11.2109 15.781 11.3385 15.4401 11.5938 15.1594C11.849 14.8786 12.1589 14.7383 12.5234 14.7383C12.8759 14.7383 13.1827 14.8786 13.444 15.1594C13.7053 15.4401 13.8359 15.781 13.8359 16.182C13.8359 16.5831 13.7083 16.9239 13.4531 17.2047C13.1979 17.4854 12.888 17.6258 12.5234 17.6258ZM4.28385 4.3914L6.28906 8.96327H11.5391L13.8177 4.3914H4.28385ZM3.73698 3.18827H14.474C14.8628 3.18827 15.1089 3.31861 15.2122 3.57929C15.3155 3.83996 15.2821 4.13072 15.112 4.45155L12.651 9.32421C12.5295 9.55147 12.3594 9.74864 12.1406 9.91574C11.9219 10.0828 11.6849 10.1664 11.4297 10.1664H5.90625L4.88542 12.2518H13.8359V13.4549H5.04948C4.53906 13.4549 4.17144 13.2678 3.94661 12.8935C3.72179 12.5192 3.72483 12.0981 3.95573 11.6302L5.1224 9.26405L2.35156 2.80728H0.929688V1.60416H3.0625L3.73698 3.18827ZM6.28906 8.96327H11.5391H6.28906Z" fill="white"/>
</svg>
